<svg xmlns="http://www.w3.org/2000/svg" shape-rendering="crispEdges" viewBox="0 0 8 8"><g fill="#f0d9b5"><rect width="8" height="8"/></g><g fill="#b58863"><rect width="1" height="1" x="1"/><rect width="1" height="1" x="3"/><rect width="1" height="1" x="5"/><rect width="1" height="1" x="7"/><rect width="1" height="1" x="1" y="2"/><rect width="1" height="1" x="3" y="2"/><rect width="1" height="1" x="5" y="2"/><rect width="1" height="1" x="7" y="2"/><rect width="1" height="1" x="1" y="4"/><rect width="1" height="1" x="3" y="4"/><rect width="1" height="1" x="5" y="4"/><rect width="1" height="1" x="7" y="4"/><rect width="1" height="1" x="1" y="6"/><rect width="1" height="1" x="3" y="6"/><rect width="1" height="1" x="5" y="6"/><rect width="1" height="1" x="7" y="6"/><rect width="1" height="1" x="0" y="1"/><rect width="1" height="1" x="2" y="1"/><rect width="1" height="1" x="4" y="1"/><rect width="1" height="1" x="6" y="1"/><rect width="1" height="1" x="0" y="3"/><rect width="1" height="1" x="2" y="3"/><rect width="1" height="1" x="4" y="3"/><rect width="1" height="1" x="6" y="3"/><rect width="1" height="1" x="0" y="5"/><rect width="1" height="1" x="2" y="5"/><rect width="1" height="1" x="4" y="5"/><rect width="1" height="1" x="6" y="5"/><rect width="1" height="1" x="0" y="7"/><rect width="1" height="1" x="2" y="7"/><rect width="1" height="1" x="4" y="7"/><rect width="1" height="1" x="6" y="7"/></g></svg>